<svg version="1.1" xmlns="http://www.w3.org/2000/svg" width="256" height="256">
<path d="M0 0 C84.48 0 168.96 0 256 0 C256 84.48 256 168.96 256 256 C171.52 256 87.04 256 0 256 C0 171.52 0 87.04 0 0 Z " fill="#111111" transform="translate(0,0)"/>
<path d="M0 0 C7.26 0 14.52 0 22 0 C28.32220314 16.45952887 34.63933243 32.92136918 40.8125 49.4375 C41.45131104 51.13096558 41.45131104 51.13096558 42.10302734 52.85864258 C42.48797363 53.89400146 42.87291992 54.92936035 43.26953125 55.99609375 C43.77383667 57.34465454 43.77383667 57.34465454 44.28833008 58.72045898 C45 61 45 61 45 64 C45.66 64 46.32 64 47 64 C47.12322632 63.29429871 47.24645264 62.58859741 47.37341309 61.86151123 C48.03204227 58.85366865 48.96113851 56.10477935 50.02539062 53.21582031 C50.44252319 52.0782428 50.85965576 50.94066528 51.28942871 49.76861572 C51.74047974 48.55075378 52.19153076 47.33289185 52.65625 46.078125 C53.12349407 44.8098025 53.59049072 43.54138882 54.05725098 42.27288818 C55.03337485 39.62261991 56.01206754 36.97331924 56.99267578 34.32470703 C58.25143678 30.9243473 59.5043743 27.521877 60.75550079 24.11870193 C61.71764243 21.50320924 62.68250437 18.88872689 63.64823914 16.27455902 C64.33705993 14.40874642 65.02382583 12.54217561 65.71057129 10.67559814 C66.12770386 9.55062927 66.54483643 8.4256604 66.97460938 7.26660156 C67.3424353 6.27130432 67.71026123 5.27600708 68.0892334 4.25054932 C69 2 69 2 70 1 C77.26 1 84.52 1 92 1 C92 31.03 92 61.06 92 92 C87.05 92 82.1 92 77 92 C76.67 70.22 76.34 48.44 76 26 C69.13271629 44.33915235 69.13271629 44.33915235 62.26782227 62.67919922 C61.40910388 64.97106123 60.55030417 67.26289277 59.69140625 69.5546875 C59.24309448 70.75359619 58.79478271 71.95250488 58.33288574 73.18774414 C57.90664917 74.32445557 57.4804126 75.46116699 57.04125977 76.63232422 C56.67041763 77.62271698 56.2995755 78.61310974 55.91749573 79.6335144 C55 82 55 82 54 84 C48.72 84 43.44 84 38 84 C36.3125998 79.59763286 34.62577572 75.19505177 32.94018555 70.79199219 C32.3714725 69.30685224 31.80247973 67.82181936 31.2331543 66.33691406 C26.0878238 52.91590928 21.04712942 39.45901179 16 26 C15.67 47.78 15.34 69.56 15 92 C10.05 92 5.1 92 0 92 C0 61.64 0 31.28 0 0 Z " fill="#FCFCFC" transform="translate(82,82)"/>
<path d="M0 0 C7.92 0 15.84 0 24 0 C24 10.23 24 20.46 24 31 C63.93 31 103.86 31 145 31 C145 38.92 145 46.84 145 55 C97.15 55 49.3 55 0 55 C0 36.85 0 18.7 0 0 Z " fill="#84A5A4" transform="translate(37,163)"/>
<path d="M0 0 C47.85 0 95.7 0 145 0 C145 18.15 145 36.3 145 55 C137.08 55 129.16 55 121 55 C121 44.77 121 34.54 121 24 C81.07 24 41.14 24 0 24 C0 16.08 0 8.16 0 0 Z " fill="#84A4A3" transform="translate(74,38)"/>
<path d="M0 0 C7.92 0 15.84 0 24 0 C24 36.96 24 73.92 24 112 C16.08 112 8.16 112 0 112 C0 75.04 0 38.08 0 0 Z " fill="#84A4A3" transform="translate(195,106)"/>
<path d="M0 0 C7.92 0 15.84 0 24 0 C24 36.96 24 73.92 24 112 C16.08 112 8.16 112 0 112 C0 75.04 0 38.08 0 0 Z " fill="#83A3A2" transform="translate(37,38)"/>
</svg>
